# xmcd CD database file generated by Grip 2.91
# 
# Track frame offsets:
#       150
#       18720
#       30610
#       55830
#       79537
#       95822
#       114465
#       129745
#       146855
#       159345
#       174940
#       186097
#       204385
#       218677
#       238067
#       266972
# 
# Disc length: 3718 seconds
# 
# Revision: 3
# Processed by: cddbd v1.4b41PL1 Copyright (c) Steve Scherf et al.
# Submitted via: Grip 2.91
# 
DISCID=e40e8410
DTITLE=Various Artist - Songs For Summer
DYEAR=1900
DGENRE=
TTITLE0="Where's Summer B?" - Ben Folds Five
TTITLE1=Song For Her - Jason Falkner
TTITLE2=True Dreams Of Wichita (live) - Soul Coughing
TTITLE3=Indian Summer - The Jazz Butcher
TTITLE4=Brief Candles - The Poises
TTITLE5=Midsummer- Babacar
TTITLE6=In The Aeroplane Over The Sea - Nuetral Milk Hotel
TTITLE7=All Along The Frying Pan (live) - Squirrel Nut Zippers
TTITLE8=Funky Cold Medina - The Frank and Walters
TTITLE9=Summer - Beasley
TTITLE10=The Summer You Let Your Hair Grow Out (live) - Pansy Division
TTITLE11=Summer of Love - The B-52's
TTITLE12=After The Beach - Sandycoates
TTITLE13=Rhyme For The Summertime (orginal demo) - G Love
TTITLE14=That Summer Feeling - Jonathan Richman
TTITLE15=Untitled Bonus Track
EXTD=
EXTT0=
EXTT1=
EXTT2=
EXTT3=
EXTT4=
EXTT5=
EXTT6=
EXTT7=
EXTT8=
EXTT9=
EXTT10=
EXTT11=
EXTT12=
EXTT13=
EXTT14=
EXTT15=
PLAYORDER=
